<svg width="200" height="200" fill="#FF006E" viewBox="0 0 200 200" xmlns="http://www.w3.org/2000/svg">
    <defs>
      <clipPath id="dddivided-clip1"><rect width="50%" height="100%" x="0" y="0"></rect></clipPath>
      <clipPath id="dddivided-clip2"><rect width="50%" height="100%" x="50%" y="0"></rect></clipPath>
    </defs> 
    <path fill="#ffbe0b" clip-path="url(#dddivided-clip1)" transform="translate(19,-10)" d="M127.283 65.922c5.978 4.562 9.667 11.978 12.11 24.578-8.228 8.13-13.128 15.207-15.919 23.073-2.708 7.634-3.383 15.89-3.347 26.338l-50.791-2.662c1.726-13.469 1.377-22.824-1.014-30.558-2.413-7.802-6.859-13.798-12.968-20.6 4.128-11.368 8.538-18.324 14.874-22.433 6.507-4.221 15.32-5.622 28.691-5.183 13.351.852 22.21 2.751 28.364 7.447Z"/><path clip-path="url(#dddivided-clip2)" d="M127.283 65.922c5.978 4.562 9.667 11.978 12.11 24.578-8.228 8.13-13.128 15.207-15.919 23.073-2.708 7.634-3.383 15.89-3.347 26.338l-50.791-2.662c1.726-13.469 1.377-22.824-1.014-30.558-2.413-7.802-6.859-13.798-12.968-20.6 4.128-11.368 8.538-18.324 14.874-22.433 6.507-4.221 15.32-5.622 28.691-5.183 13.351.852 22.21 2.751 28.364 7.447Z"/>
</svg>