<svg width="200" height="200" fill="#FF006E" viewBox="0 0 200 200" xmlns="http://www.w3.org/2000/svg">
    <defs>
      <clipPath id="dddivided-clip1"><rect width="50%" height="100%" x="0" y="0"></rect></clipPath>
      <clipPath id="dddivided-clip2"><rect width="50%" height="100%" x="50%" y="0"></rect></clipPath>
    </defs> 
    <path fill="#ffbe0b" clip-path="url(#dddivided-clip1)" transform="translate(19,-10)" d="m102.063 74.251.507 2.005 1.748-1.103 58.576-36.958-48.666 49.408-1.436 1.458 1.823.93 29.058 14.83-32.615.754-2.595.06 1.348 2.219 32.152 52.9-46.835-46.546-1.2-1.193-1.04 1.336L56.6 160.956l21.836-53.313.826-2.018-2.18-.05-32.614-.754 29.058-14.83 1.651-.843-1.17-1.439-39.521-48.642 49.252 36.028 1.795 1.313.545-2.157 7.992-31.628 7.992 31.628Z"/><path clip-path="url(#dddivided-clip2)" d="m102.063 74.251.507 2.005 1.748-1.103 58.576-36.958-48.666 49.408-1.436 1.458 1.823.93 29.058 14.83-32.615.754-2.595.06 1.348 2.219 32.152 52.9-46.835-46.546-1.2-1.193-1.04 1.336L56.6 160.956l21.836-53.313.826-2.018-2.18-.05-32.614-.754 29.058-14.83 1.651-.843-1.17-1.439-39.521-48.642 49.252 36.028 1.795 1.313.545-2.157 7.992-31.628 7.992 31.628Z"/>
</svg>