<svg width="200" height="200" fill="#8338EC" viewBox="0 0 200 200" xmlns="http://www.w3.org/2000/svg">
    <defs>
      <clipPath id="dddivided-clip1"><rect width="50%" height="100%" x="0" y="0"></rect></clipPath>
      <clipPath id="dddivided-clip2"><rect width="50%" height="100%" x="50%" y="0"></rect></clipPath>
    </defs> 
    <path fill="#ffbe0b" clip-path="url(#dddivided-clip1)" transform="translate(20,6)" d="m98.417 60.917 1.717-6.794 1.716 6.794c3.283 12.991 17.52 19.847 29.724 14.314l6.382-2.894-4.241 5.579c-8.11 10.666-4.594 26.072 7.341 32.163l6.242 3.186-7.006.162c-13.396.31-23.248 12.664-20.569 25.793l1.401 6.866-4.495-5.376c-8.594-10.281-24.396-10.281-32.99 0l-4.495 5.376 1.4-6.866c2.68-13.129-7.173-25.483-20.569-25.793l-7.006-.162 6.242-3.186c11.935-6.091 15.451-21.497 7.341-32.163l-4.241-5.579 6.382 2.894c12.204 5.534 26.441-1.323 29.724-14.314Z"/><path clip-path="url(#dddivided-clip2)" d="m98.417 60.917 1.717-6.794 1.716 6.794c3.283 12.991 17.52 19.847 29.724 14.314l6.382-2.894-4.241 5.579c-8.11 10.666-4.594 26.072 7.341 32.163l6.242 3.186-7.006.162c-13.396.31-23.248 12.664-20.569 25.793l1.401 6.866-4.495-5.376c-8.594-10.281-24.396-10.281-32.99 0l-4.495 5.376 1.4-6.866c2.68-13.129-7.173-25.483-20.569-25.793l-7.006-.162 6.242-3.186c11.935-6.091 15.451-21.497 7.341-32.163l-4.241-5.579 6.382 2.894c12.204 5.534 26.441-1.323 29.724-14.314Z"/>
</svg>