<svg width="200" height="200" fill="#FF006E" viewBox="0 0 200 200" xmlns="http://www.w3.org/2000/svg">
    <defs>
      <clipPath id="dddivided-clip1"><rect width="50%" height="100%" x="0" y="0"></rect></clipPath>
      <clipPath id="dddivided-clip2"><rect width="50%" height="100%" x="50%" y="0"></rect></clipPath>
    </defs> 
    <path fill="#ffbe0b" clip-path="url(#dddivided-clip1)" transform="translate(19,-10)" d="m73.8 139.715-15.349-47.24c6.102 2.549 11.426 4.246 16.06 4.881 5.42.743 10.025.05 13.818-2.552 3.764-2.583 6.5-6.891 8.534-12.896 1.339-3.95 2.396-8.7 3.235-14.304 1.256 5.623 2.654 10.38 4.255 14.327 2.42 5.965 5.357 10.215 9.1 12.765 3.786 2.579 8.201 3.287 13.277 2.553 4.218-.61 8.949-2.222 14.269-4.63l-15.302 47.096H73.8Z"/><path clip-path="url(#dddivided-clip2)" d="m73.8 139.715-15.349-47.24c6.102 2.549 11.426 4.246 16.06 4.881 5.42.743 10.025.05 13.818-2.552 3.764-2.583 6.5-6.891 8.534-12.896 1.339-3.95 2.396-8.7 3.235-14.304 1.256 5.623 2.654 10.38 4.255 14.327 2.42 5.965 5.357 10.215 9.1 12.765 3.786 2.579 8.201 3.287 13.277 2.553 4.218-.61 8.949-2.222 14.269-4.63l-15.302 47.096H73.8Z"/>
</svg>