<svg width="200" height="200" fill="#8338EC" viewBox="0 0 200 200" xmlns="http://www.w3.org/2000/svg">
    <defs>
      <clipPath id="dddivided-clip1"><rect width="50%" height="100%" x="0" y="0"></rect></clipPath>
      <clipPath id="dddivided-clip2"><rect width="50%" height="100%" x="50%" y="0"></rect></clipPath>
    </defs> 
    <path fill="#ffbe0b" clip-path="url(#dddivided-clip1)" transform="translate(20,6)" d="M108.411 78.004c.043-6.722-1.183-15.61-3.545-26.784 6.744 8.43 12.635 14.242 18.86 17.886 7.331 4.293 14.99 5.505 24.745 4.708 9.119 11.65 12.412 19.973 11.919 27.497-.482 7.377-4.611 14.337-11.461 23.269-9.818-8.426-17.79-14.198-24.22-17.322-6.642-3.226-12.106-3.84-16.226-.924-3.978 2.815-6.112 8.558-7.223 16.373-1 7.032-1.216 16.11-.937 27.107-6.523-7.45-12.237-13.027-18.666-16.975-7.252-4.455-15.313-6.778-26.289-7.551-10.385-9.348-14.957-16.547-14.867-24.015.09-7.441 4.792-15.65 14.513-27.028 11.528 7.848 21.036 13.63 28.633 17.032 3.921 1.755 7.396 2.906 10.421 3.36 3.026.454 5.71.227 7.942-.907 4.548-2.31 6.35-7.856 6.401-15.726Z"/><path clip-path="url(#dddivided-clip2)" d="M108.411 78.004c.043-6.722-1.183-15.61-3.545-26.784 6.744 8.43 12.635 14.242 18.86 17.886 7.331 4.293 14.99 5.505 24.745 4.708 9.119 11.65 12.412 19.973 11.919 27.497-.482 7.377-4.611 14.337-11.461 23.269-9.818-8.426-17.79-14.198-24.22-17.322-6.642-3.226-12.106-3.84-16.226-.924-3.978 2.815-6.112 8.558-7.223 16.373-1 7.032-1.216 16.11-.937 27.107-6.523-7.45-12.237-13.027-18.666-16.975-7.252-4.455-15.313-6.778-26.289-7.551-10.385-9.348-14.957-16.547-14.867-24.015.09-7.441 4.792-15.65 14.513-27.028 11.528 7.848 21.036 13.63 28.633 17.032 3.921 1.755 7.396 2.906 10.421 3.36 3.026.454 5.71.227 7.942-.907 4.548-2.31 6.35-7.856 6.401-15.726Z"/>
</svg>