<svg width="200" height="200" fill="#8338EC" viewBox="0 0 200 200" xmlns="http://www.w3.org/2000/svg">
    <defs>
      <clipPath id="dddivided-clip1"><rect width="50%" height="100%" x="0" y="0"></rect></clipPath>
      <clipPath id="dddivided-clip2"><rect width="50%" height="100%" x="50%" y="0"></rect></clipPath>
    </defs> 
    <path fill="#ffbe0b" clip-path="url(#dddivided-clip1)" transform="translate(20,6)" d="m99.16 107.746-22.114 48.983c-27.41-14.479-38.401-35.614-38.545-55.395-.146-20.203 11.007-39.192 28.021-48.66 10.208-5.68 24.347-12.286 40.714-7.559 16.099 4.65 34.841 20.416 54.168 60.233l-60.915 1.516-.942.023-.388.859Z"/><path clip-path="url(#dddivided-clip2)" d="m99.16 107.746-22.114 48.983c-27.41-14.479-38.401-35.614-38.545-55.395-.146-20.203 11.007-39.192 28.021-48.66 10.208-5.68 24.347-12.286 40.714-7.559 16.099 4.65 34.841 20.416 54.168 60.233l-60.915 1.516-.942.023-.388.859Z"/>
</svg>